<mxfile host="65bd71144e">
    <diagram id="-pT2JcCniQSp9khg3KoX" name="Page-1">
        <mxGraphModel dx="1810" dy="437" grid="1" gridSize="10" guides="1" tooltips="1" connect="1" arrows="1" fold="1" page="1" pageScale="1" pageWidth="850" pageHeight="1100" math="0" shadow="0">
            <root>
                <mxCell id="0"/>
                <mxCell id="1" parent="0"/>
                <mxCell id="2" value="" style="rounded=1;whiteSpace=wrap;html=1;" parent="1" vertex="1">
                    <mxGeometry x="-10" y="10" width="620" height="340" as="geometry"/>
                </mxCell>
                <mxCell id="3" value="TYPE HERE" style="rounded=0;whiteSpace=wrap;html=1;" parent="1" vertex="1">
                    <mxGeometry x="120" y="30" width="360" height="60" as="geometry"/>
                </mxCell>
                <mxCell id="4" value="" style="whiteSpace=wrap;html=1;aspect=fixed;" parent="1" vertex="1">
                    <mxGeometry x="195" y="120" width="210" height="210" as="geometry"/>
                </mxCell>
                <mxCell id="7" value="TITLE" style="rounded=0;whiteSpace=wrap;html=1;" parent="1" vertex="1">
                    <mxGeometry x="210" y="290" width="180" height="30" as="geometry"/>
                </mxCell>
                <mxCell id="8" value="IMAGE" style="whiteSpace=wrap;html=1;aspect=fixed;" parent="1" vertex="1">
                    <mxGeometry x="230" y="140" width="140" height="140" as="geometry"/>
                </mxCell>
                <mxCell id="9" value="" style="rounded=1;whiteSpace=wrap;html=1;" parent="1" vertex="1">
                    <mxGeometry y="380" width="620" height="340" as="geometry"/>
                </mxCell>
                <mxCell id="10" value="&lt;h3 style=&quot;line-height:1.38;margin-top:0pt;margin-bottom:12pt;&quot;&gt;&lt;div style=&quot;text-align: justify;&quot;&gt;&lt;span style=&quot;color: rgb(0, 0, 204); background-color: transparent; font-family: Arial, sans-serif; font-size: 11pt; font-weight: normal;&quot;&gt;&lt;br&gt;&lt;/span&gt;&lt;/div&gt;&lt;div style=&quot;text-align: justify;&quot;&gt;&lt;span style=&quot;color: rgb(0, 0, 204); background-color: transparent; font-family: Arial, sans-serif; font-size: 11pt; font-weight: normal;&quot;&gt;Display comprehensive recipe information&lt;/span&gt;&lt;/div&gt;&lt;div style=&quot;text-align: justify;&quot;&gt;&lt;span style=&quot;background-color: transparent; font-size: 11pt; font-family: Arial, sans-serif; color: rgb(0, 0, 204); font-weight: normal;&quot;&gt;Show ingredients list&lt;/span&gt;&lt;/div&gt;&lt;div style=&quot;text-align: justify;&quot;&gt;&lt;span style=&quot;background-color: transparent; font-size: 11pt; font-family: Arial, sans-serif; color: rgb(0, 0, 204); font-weight: normal;&quot;&gt;Present step-by-step instructions&lt;/span&gt;&lt;/div&gt;&lt;div style=&quot;text-align: justify;&quot;&gt;&lt;span style=&quot;background-color: transparent; font-size: 11pt; font-family: Arial, sans-serif; color: rgb(0, 0, 204); font-weight: normal;&quot;&gt;Include cooking time and servings&lt;/span&gt;&lt;/div&gt;&lt;div style=&quot;text-align: justify;&quot;&gt;&lt;span style=&quot;background-color: transparent; font-size: 11pt; font-family: Arial, sans-serif; color: rgb(0, 0, 204); font-weight: normal;&quot;&gt;Display basic nutritional information&lt;/span&gt;&lt;/div&gt;&lt;/h3&gt;&lt;div style=&quot;text-align: justify;&quot;&gt;&lt;b&gt;&lt;br&gt;&lt;/b&gt;&lt;/div&gt;" style="whiteSpace=wrap;html=1;aspect=fixed;align=center;" parent="1" vertex="1">
                    <mxGeometry x="180" y="403" width="295" height="295" as="geometry"/>
                </mxCell>
            </root>
        </mxGraphModel>
    </diagram>
</mxfile>